# xmcd
#
# Track frame offsets:
#	150
#	14296
#	30591
#	43682
#	56904
#	74824
#	91351
#	110152
#	126177
#	141747
#	156020
#	171397
#	186936
#
# Disc length: 2687 seconds
#
# Revision: 0
# Processed by: cddbd v1.5.2PL0 Copyright (c) Steve Scherf et al.
# Submitted via: EasyCDDAExtractor 12.0.4.1
#
DISCID=c90a7d0d
DTITLE=Various Artist - Batidão Sertanejo CD 4
DYEAR=2009
DGENRE=Sertanejo
TTITLE0=João Bosco and Vinícius - Chora, Me liga !
TTITLE1=Luan Santana - Você Não Sabe O Que é Amor
TTITLE2=Ricardo and Eduardo - Beijo Me liga
TTITLE3=Hugo Pena and Gabriel - Mala Pronta
TTITLE4=Cesar Menotti and Fabiano - Tarde Demais
TTITLE5=Banda Nechivile - Por Toda Vida
TTITLE6=Rud and Robson - Tatuagem
TTITLE7=Carlos and Jader - E Daí
TTITLE8=Fernando and Sorocaba - Vendaval
TTITLE9=Michel Teló - Amanhã Sei Lá
TTITLE10=Ulisses and Moisés - Meu Grande Amor
TTITLE11=Pedro Paulo and Matheus - Eu Vou Te Buscar
TTITLE12=Tony and Kleber - Festa do Vardomiro
EXTD=
EXTT0=
EXTT1=
EXTT2=
EXTT3=
EXTT4=
EXTT5=
EXTT6=
EXTT7=
EXTT8=
EXTT9=
EXTT10=
EXTT11=
EXTT12=
PLAYORDER=
